<svg width="241" height="272" viewBox="0 0 241 272" fill="none" xmlns="http://www.w3.org/2000/svg">
<path d="M105.988 147.334C107.051 149.794 108.293 154.869 108.985 156.487M108.985 156.487C113.627 154.182 119.672 151.397 126.952 149.364C134.231 147.332 135.745 146.767 138.452 146.846C144.87 146.523 145.366 146.637 146.771 146.791M108.985 156.487L116.697 171.74M146.771 146.791C147.478 146.737 181.227 128.585 181.227 128.585L207.649 114.075L214.361 111.879M146.771 146.791C145.973 152.946 143.009 157.444 139.056 163.641M116.697 171.74L138.634 164.564M116.697 171.74C119.187 172.703 129.989 179.124 129.989 179.124M116.697 171.74L91.8859 217.189M214.361 111.879L216.416 103.207M214.361 111.879L221.073 109.683L216.416 103.207M139.056 163.641L138.634 164.564M139.056 163.641L129.989 179.124M239 120.705L232.542 114.819L226.807 112.251M189.734 145.712L193.612 139.288L204.948 136.824L220.209 148.008L207.534 169.932L196.506 189.005M189.734 145.712L184.496 147.426L163.869 154.174C162.247 154.805 154.261 159.402 151.239 160.44C148.217 161.477 146.77 162.347 138.634 164.564M189.734 145.712L172.962 175.307M196.506 189.005L184.338 210.052M196.506 189.005L172.962 175.307M196.506 189.005L219.835 200.955L218.059 228.351M172.962 175.307L160.671 196.996M129.989 179.124L139.37 184.589M91.8859 217.189L118.067 229.067M91.8859 217.189L81.2635 233.997L60.1163 223.672L71.3273 203.65M139.37 184.589L145.33 188.06M139.37 184.589L128.748 207.44M160.671 196.996L184.338 210.052M160.671 196.996L148.64 217.82M160.671 196.996L145.33 188.06M184.338 210.052L218.059 228.351M184.338 210.052L171.921 231.358M148.64 217.82L171.921 231.358M148.64 217.82L132.963 209.795M148.64 217.82L139.251 240.624M145.33 188.06L132.963 209.795M218.059 228.351L201.141 248.641L171.921 231.358M171.921 231.358L160.521 254.109M160.521 254.109L139.251 240.624M160.521 254.109L166.524 256.945M132.963 209.795L128.748 207.44M139.251 240.624L118.067 229.067M128.748 207.44L118.067 229.067M71.3273 203.65L51.0756 191.076L56.8017 179.781L104.351 174.995M71.3273 203.65L78.828 208.306M104.907 146.799C117.178 142.585 123.227 140.624 133.064 137.587L177.01 111.832L202.808 94.8595L216.416 103.207" stroke="url(#paint0_linear_470_69)" stroke-opacity="0.3" stroke-width="5"/>
<path d="M107.704 151.449L122.126 147.431M127.091 149.322L129.929 154.757M129.929 154.757L145.296 147.431M129.929 154.757L136.785 155.173M159.246 141.05L155.227 134.904L171.54 128.76L182.653 139.159L151.208 154.757M135.366 181.228L139.622 174.847L136.785 168.229L170.896 158.184M137.731 155.23L136.785 155.173M136.785 155.173V159.721L124.491 158.184L113.142 162.32M124.491 177.21L116.452 194.227L124.018 197.3L132.529 181.937M135.366 184.773L129.929 194.227M166.103 165.629L174.85 170.593M166.103 165.629L175.689 150.74M166.103 165.629L158.3 178.628M137.731 177.683L155.227 188.082M148.606 177.683L166.103 188.082M116.452 167.284L122.126 164.92M202.277 137.032L198.257 144.831M198.257 144.831L194.238 152.63M198.257 144.831L212.68 150.74L207.951 158.184M193.056 172.247L186.199 168.229L194.238 152.63M193.056 172.247L202.277 155.23M193.056 172.247C191.165 182.173 196.968 180.065 195.184 179.81M193.056 172.247L221.73 187.318M194.238 152.63L202.277 155.23M202.277 155.23L207.951 158.184M207.951 158.184L202.277 168.229L196.642 165.629M172.25 202.026C172.817 201.459 177.215 193.912 179.343 190.209L190.928 196.118L186.199 205.099L168.703 196.118M139.622 196.118L146.242 199.427M146.242 199.427V193.282L153.335 197.3L146.242 210.535V199.427ZM146.242 199.427L140.804 207.226M165.157 200.372L158.3 213.844M158.3 213.844L168.703 219.043L165.157 208.408M158.3 213.844L155.227 217.389L168.703 225.188L173.905 213.844L165.157 208.408M158.3 213.844L165.157 208.408M158.3 213.844L153.335 211.716M165.157 208.408L157.118 203.208C147.544 200.079 142.708 195.16 131.111 204.071M131.111 204.071C127.058 208.28 120.868 208.786 100.138 205.099M131.111 204.071C134.515 211.889 133.475 218.413 132.529 220.698L119.525 215.262L117.871 217.389L129.929 222.588L126.146 232.988L106.995 249.295L93.991 235.587M100.138 205.099C103.826 208.385 106.424 209.96 113.142 211.716L108.65 217.389C107.359 219.687 106.435 220.731 95.8823 211.716L100.138 205.099ZM93.991 235.587L88.3163 229.679M93.991 235.587L88.3163 241.968L81.9327 238.187L88.3163 229.679M88.3163 229.679C88.3163 229.679 87.8438 223.534 93.991 222.588C100.138 221.643 102.975 227.551 102.975 227.551C103.096 229.984 100.972 230.748 88.3163 229.679ZM81.9327 188.082L101.793 196.118L81.2237 233.697L77.6772 232.988L114.324 167.284L106.522 146.485L70.5842 163.975L72.9484 168.229L116.452 170.593M53.0882 168.229L62.7818 179.337L69.4019 181.937L66.2495 186.664M66.2495 186.664L64.2006 189.736L59.4718 188.082L61.127 184.773L66.2495 186.664ZM62.7818 198.717C62.7818 198.717 59.4718 200.845 59.4718 205.099C59.4718 209.353 64.2006 215.262 64.2006 215.262L61.127 222.588C61.127 222.588 57.344 224.952 56.6347 220.698C55.9253 216.443 67.2742 201.79 67.2742 201.79M155.936 236.06L151.444 240.233M151.444 240.233L132.529 257.803L121.181 249.295L126.146 243.623L148.606 257.803L137.731 270.094L120.471 257.331M151.444 240.233L155.227 243.623M120.471 257.331L135.366 243.623L126.146 238.187L113.142 252.131L120.471 257.331ZM146.242 238.187L151.444 229.679L163.265 236.06L155.227 243.623M155.227 243.623L159.482 248.113L176.742 236.968M176.742 236.968L186.199 230.86L197.075 238.187L183.126 250.241L170.122 240.233L176.742 236.968ZM176.742 236.968L183.126 244.805L192.583 255.44L214.571 226.843L206.06 222.588L213.862 212.898M200.149 219.043L207.242 208.408L201.567 205.099L207.715 195.409" stroke="url(#paint1_linear_470_69)" stroke-opacity="0.3" stroke-width="2"/>
<g filter="url(#filter0_i_470_69)">
<path d="M152.385 120.995C207.041 85.6721 198.276 90.3836 222.298 71.216V20.4564C208.025 32.2833 171.442 60.3062 165.754 62.6377C160.066 64.9688 109.914 79.0268 77.9458 88.4146L14.2509 105.074L38.6672 171.443C81.1217 152.883 103.782 143.144 152.385 120.995Z" fill="#05CAAD" fill-opacity="0.35"/>
</g>
<path d="M71.5565 87.1676L65.0456 89.3601L3 103.811L3.91885 73.0357L60.5191 53.4097L71.5565 87.1676ZM71.5565 87.1676L110.848 73.9354L112.644 73.3304M112.644 73.3304L105.814 61.6641L101.867 52.0426L93.7697 39.7797L111.342 35.8966L125.845 47.5777L133.525 66.2984M112.644 73.3304L133.525 66.2984M133.525 66.2984L166.304 55.259L175.87 48.6755M175.87 48.6755L205.76 28.1009L181.052 4L145.282 25.8156C154.322 32.4863 173.095 46.3977 175.87 48.6755Z" stroke="url(#paint2_linear_470_69)" stroke-opacity="0.5" stroke-width="5"/>
<path d="M52.1423 67.5462L67.7467 62.8191L75.3126 84.563L63.2543 89.9988L59.9443 82.1993L79.8046 55.256L100.847 50.7657L103.684 56.6742L122.126 53.129L126.618 61.6373L131.583 59.983L129.813 56.6742M129.813 56.6742L126.145 49.8202L137.967 47.6932L141.513 55.256L129.813 56.6742ZM134.42 51.9472L171.54 53.129" stroke="#05CAAD" stroke-opacity="0.1" stroke-width="2"/>
<path d="M118.601 228.09L139.407 184.839L116.946 171.84L109.38 156.478L116.946 152.696" stroke="#05CAAD" stroke-opacity="0.2" stroke-width="2"/>
<g filter="url(#filter1_di_470_69)">
<path d="M115.627 176.901C118.661 176.901 121.121 174.442 121.121 171.408C121.121 168.375 118.661 165.916 115.627 165.916C112.592 165.916 110.132 168.375 110.132 171.408C110.132 174.442 112.592 176.901 115.627 176.901Z" fill="#05CAAD"/>
</g>
<path d="M115.627 178.984C119.812 178.984 123.205 175.592 123.205 171.408C123.205 167.224 119.812 163.832 115.627 163.832C111.441 163.832 108.048 167.224 108.048 171.408C108.048 175.592 111.441 178.984 115.627 178.984Z" stroke="white"/>
<path d="M186.678 48.8664C191.282 48.8664 195.015 45.1353 195.015 40.5328C195.015 35.9302 191.282 32.1992 186.678 32.1992C182.074 32.1992 178.341 35.9302 178.341 40.5328C178.341 45.1353 182.074 48.8664 186.678 48.8664Z" fill="#00FFDA" fill-opacity="0.14"/>
<g filter="url(#filter2_d_470_69)">
<path d="M182.757 44.5291C182.433 44.6235 182.156 44.2784 182.319 43.9825L186.893 35.6864C187.059 35.3864 187.507 35.4429 187.592 35.7747L188.552 39.4991C188.579 39.6044 188.651 39.693 188.748 39.7423L191.708 41.2461C192.014 41.4014 191.972 41.8518 191.642 41.9476L182.757 44.5291Z" fill="white"/>
</g>
<path d="M90.2375 54.9272C90.2375 60.6804 85.572 65.3442 79.8167 65.3442C74.0613 65.3442 69.3958 60.6804 69.3958 54.9272C69.3958 49.1744 74.0613 44.5102 79.8167 44.5102C85.572 44.5102 90.2375 49.1744 90.2375 54.9272Z" fill="#03DABB" fill-opacity="0.33" stroke="white"/>
<g filter="url(#filter3_d_470_69)">
<path d="M79.6272 60.2304C82.6618 60.2304 85.1219 57.7713 85.1219 54.7378C85.1219 51.7043 82.6618 49.2452 79.6272 49.2452C76.5926 49.2452 74.1326 51.7043 74.1326 54.7378C74.1326 57.7713 76.5926 60.2304 79.6272 60.2304Z" fill="#05CAAD"/>
</g>
<defs>
<filter id="filter0_i_470_69" x="14.2509" y="20.4564" width="208.047" height="154.987" filterUnits="userSpaceOnUse" color-interpolation-filters="sRGB">
<feFlood flood-opacity="0" result="BackgroundImageFix"/>
<feBlend mode="normal" in="SourceGraphic" in2="BackgroundImageFix" result="shape"/>
<feColorMatrix in="SourceAlpha" type="matrix" values="0 0 0 0 0 0 0 0 0 0 0 0 0 0 0 0 0 0 127 0" result="hardAlpha"/>
<feOffset dy="4"/>
<feGaussianBlur stdDeviation="2"/>
<feComposite in2="hardAlpha" operator="arithmetic" k2="-1" k3="1"/>
<feColorMatrix type="matrix" values="0 0 0 0 0 0 0 0 0 0 0 0 0 0 0 0 0 0 0.25 0"/>
<feBlend mode="normal" in2="shape" result="effect1_innerShadow_470_69"/>
</filter>
<filter id="filter1_di_470_69" x="62.1319" y="121.916" width="106.989" height="106.985" filterUnits="userSpaceOnUse" color-interpolation-filters="sRGB">
<feFlood flood-opacity="0" result="BackgroundImageFix"/>
<feColorMatrix in="SourceAlpha" type="matrix" values="0 0 0 0 0 0 0 0 0 0 0 0 0 0 0 0 0 0 127 0" result="hardAlpha"/>
<feOffset dy="4"/>
<feGaussianBlur stdDeviation="24"/>
<feComposite in2="hardAlpha" operator="out"/>
<feColorMatrix type="matrix" values="0 0 0 0 0.0211112 0 0 0 0 0.791667 0 0 0 0 0.680044 0 0 0 1 0"/>
<feBlend mode="normal" in2="BackgroundImageFix" result="effect1_dropShadow_470_69"/>
<feBlend mode="normal" in="SourceGraphic" in2="effect1_dropShadow_470_69" result="shape"/>
<feColorMatrix in="SourceAlpha" type="matrix" values="0 0 0 0 0 0 0 0 0 0 0 0 0 0 0 0 0 0 127 0" result="hardAlpha"/>
<feOffset dy="4"/>
<feGaussianBlur stdDeviation="2"/>
<feComposite in2="hardAlpha" operator="arithmetic" k2="-1" k3="1"/>
<feColorMatrix type="matrix" values="0 0 0 0 0 0 0 0 0 0.508333 0 0 0 0 0.434696 0 0 0 1 0"/>
<feBlend mode="normal" in2="shape" result="effect2_innerShadow_470_69"/>
</filter>
<filter id="filter2_d_470_69" x="171.271" y="22.4905" width="31.6446" height="31.0544" filterUnits="userSpaceOnUse" color-interpolation-filters="sRGB">
<feFlood flood-opacity="0" result="BackgroundImageFix"/>
<feColorMatrix in="SourceAlpha" type="matrix" values="0 0 0 0 0 0 0 0 0 0 0 0 0 0 0 0 0 0 127 0" result="hardAlpha"/>
<feOffset dy="-2"/>
<feGaussianBlur stdDeviation="5.5"/>
<feComposite in2="hardAlpha" operator="out"/>
<feColorMatrix type="matrix" values="0 0 0 0 1 0 0 0 0 1 0 0 0 0 1 0 0 0 0.57 0"/>
<feBlend mode="normal" in2="BackgroundImageFix" result="effect1_dropShadow_470_69"/>
<feBlend mode="normal" in="SourceGraphic" in2="effect1_dropShadow_470_69" result="shape"/>
</filter>
<filter id="filter3_d_470_69" x="26.1326" y="5.24518" width="106.989" height="106.985" filterUnits="userSpaceOnUse" color-interpolation-filters="sRGB">
<feFlood flood-opacity="0" result="BackgroundImageFix"/>
<feColorMatrix in="SourceAlpha" type="matrix" values="0 0 0 0 0 0 0 0 0 0 0 0 0 0 0 0 0 0 127 0" result="hardAlpha"/>
<feOffset dy="4"/>
<feGaussianBlur stdDeviation="24"/>
<feComposite in2="hardAlpha" operator="out"/>
<feColorMatrix type="matrix" values="0 0 0 0 0.0211112 0 0 0 0 0.791667 0 0 0 0 0.680044 0 0 0 1 0"/>
<feBlend mode="normal" in2="BackgroundImageFix" result="effect1_dropShadow_470_69"/>
<feBlend mode="normal" in="SourceGraphic" in2="effect1_dropShadow_470_69" result="shape"/>
</filter>
<linearGradient id="paint0_linear_470_69" x1="133.97" y1="117.381" x2="179.256" y2="255.801" gradientUnits="userSpaceOnUse">
<stop stop-color="#05CAAD"/>
<stop offset="1" stop-color="#05CAAD" stop-opacity="0"/>
</linearGradient>
<linearGradient id="paint1_linear_470_69" x1="133.83" y1="128.76" x2="133.83" y2="270.094" gradientUnits="userSpaceOnUse">
<stop stop-color="#05CAAD"/>
<stop offset="1" stop-color="#05CAAD" stop-opacity="0"/>
</linearGradient>
<linearGradient id="paint2_linear_470_69" x1="92.4043" y1="36.763" x2="109.527" y2="78.5339" gradientUnits="userSpaceOnUse">
<stop stop-color="#05CAAD" stop-opacity="0"/>
<stop offset="1" stop-color="#05CAAD"/>
</linearGradient>
</defs>
</svg>
